<svg version="1.1" id="Layer_1" xmlns="http://www.w3.org/2000/svg" xmlns:xlink="http://www.w3.org/1999/xlink" x="0px" y="0px"
	 width="100%" viewBox="0 0 228 221" enable-background="new 0 0 228 221" xml:space="preserve">
<path fill="#FEFEFE" opacity="1.000000" stroke="none" 
	d="
M130.000000,222.000000 
	C86.666672,222.000000 43.833340,222.000000 1.000006,222.000000 
	C1.000004,148.333344 1.000004,74.666679 1.000002,1.000016 
	C76.999992,1.000010 152.999985,1.000010 228.999969,1.000005 
	C228.999985,74.666649 228.999985,148.333298 229.000000,221.999969 
	C196.166672,222.000000 163.333328,222.000000 130.000000,222.000000 
M3.202634,138.439072 
	C3.202634,138.439072 3.575960,138.722443 3.575960,138.722443 
	C3.575960,138.722443 4.021256,138.576065 4.940855,138.740417 
	C11.515792,138.740417 18.090729,138.740417 24.665667,138.740417 
	C24.662762,139.340149 24.659857,139.939880 24.656952,140.539612 
	C21.393435,140.876175 17.880983,140.576416 14.936460,141.728348 
	C11.996514,142.878494 8.686605,144.974854 7.271196,147.592911 
	C5.882307,150.161926 6.673090,153.909332 6.517999,156.931061 
	C12.329775,156.931061 17.108709,156.510834 21.740046,157.153793 
	C23.412924,157.386017 24.731840,160.167862 26.212280,161.786285 
	C23.746233,162.557541 21.086605,164.280289 18.869246,163.829163 
	C16.704891,163.388824 14.992293,160.728027 12.936003,158.913757 
	C11.605673,159.867752 10.212684,160.866684 8.444746,162.134506 
	C11.849171,165.022476 15.453388,167.196594 17.802372,170.315948 
	C20.250385,173.566803 22.531479,175.400635 26.812065,173.992813 
	C25.382906,171.766266 23.979136,169.579254 22.610397,167.446838 
	C24.913551,166.633194 27.029753,166.163376 28.866043,165.174011 
	C31.876896,163.551819 33.811619,161.197479 32.346832,157.440414 
	C30.951836,153.862350 24.935589,149.788010 21.205952,150.078583 
	C17.135386,150.395721 13.079322,150.898987 8.673456,151.356812 
	C10.304387,147.058945 13.456518,145.017029 17.488947,145.165665 
	C21.234085,145.303711 24.942469,146.438889 29.031326,147.644974 
	C29.743673,147.949432 30.456018,148.253906 31.168364,148.558365 
	C31.244253,148.026337 31.320143,147.494293 31.641890,146.078903 
	C31.641890,143.806107 31.641890,141.533310 31.641890,139.026108 
	C35.949078,139.026108 39.654217,139.026108 44.524933,139.026108 
	C42.481270,140.241302 41.381622,140.895157 40.257584,141.563522 
	C42.562641,145.909836 45.875870,149.863541 42.232151,155.473816 
	C39.973972,152.780411 38.410160,150.915192 36.846348,149.049973 
	C35.699223,150.581711 35.205620,152.189484 35.784939,153.150436 
	C38.250946,157.240891 41.034576,161.139893 44.282318,165.388229 
	C45.695038,165.686035 47.107761,165.983826 48.520485,166.281616 
	C48.561455,166.065765 48.602425,165.849915 48.643394,165.634048 
	C48.059727,165.447891 47.476063,165.261719 47.723461,164.875214 
	C46.641579,162.379257 45.559692,159.883316 44.147720,156.625839 
	C49.299278,156.079712 54.303719,155.549179 59.936180,154.952072 
	C59.936180,158.462311 59.936180,161.728790 59.926609,165.623260 
	C60.285942,165.764084 60.645271,165.904907 61.798351,166.191483 
	C62.866337,166.123459 63.934319,166.055435 65.519165,166.079605 
	C65.667854,165.987320 65.816536,165.895020 66.483170,165.638031 
	C66.444633,165.132233 66.406097,164.626450 66.587921,163.194733 
	C66.628975,155.112579 66.670036,147.030441 67.672943,138.810822 
	C71.863831,138.690140 76.054726,138.569458 80.262733,139.246597 
	C80.178642,139.498962 80.094551,139.751312 79.266159,140.077087 
	C78.410583,140.544754 77.555008,141.012436 76.609703,141.529144 
	C78.585220,145.746857 82.185806,149.601944 78.572304,155.260147 
	C76.515045,152.916153 74.927872,151.107742 73.340691,149.299332 
	C72.861832,149.294281 72.382973,149.289230 71.904114,149.284180 
	C71.904114,150.595840 71.431366,152.170227 71.988297,153.172394 
	C74.079254,156.935013 76.265289,160.704117 78.945366,164.046036 
	C79.817009,165.132919 82.308464,164.920776 84.378815,165.661423 
	C84.828308,165.797287 85.277802,165.933136 85.727295,166.069000 
	C85.158371,165.028656 84.589439,163.988312 83.811699,162.322784 
	C82.621773,160.768204 81.431854,159.213623 80.614456,158.145737 
	C82.526726,156.504196 85.273979,155.295166 85.458725,153.774765 
	C86.045120,148.948990 85.675621,144.007080 85.675621,139.017883 
	C86.834404,139.017883 89.103294,139.017883 92.057220,139.017883 
	C92.057220,147.833755 92.057220,156.423538 92.029579,165.590149 
	C92.352325,165.724594 92.675064,165.859055 93.786186,166.182007 
	C94.858627,166.116333 95.931061,166.050659 97.505447,166.099503 
	C97.665146,166.036682 97.824852,165.973877 98.515862,165.930237 
	C98.583374,165.616196 98.650894,165.302170 98.859863,164.062546 
	C98.869720,158.153870 98.719559,152.238785 98.956657,146.339233 
	C99.075966,143.370621 97.089478,139.361130 102.106827,138.036148 
	C102.417801,137.954056 102.220718,135.948105 102.474152,134.617813 
	C102.424446,134.360916 102.271820,134.261353 101.250191,134.018509 
	C98.311081,134.516541 96.943542,133.139984 96.064331,130.371536 
	C94.374924,125.051964 91.518623,120.820007 84.465576,121.148239 
	C84.294701,121.427094 84.123817,121.705956 83.416344,122.486046 
	C84.154778,123.732788 84.664818,125.801636 85.671875,126.081398 
	C89.651634,127.186981 91.813187,129.625488 92.952522,133.963974 
	C90.869339,133.963974 89.107414,133.960861 87.345497,133.964432 
	C59.554909,134.020569 31.764317,134.077606 3.441346,134.095688 
	C3.319360,134.391403 3.197374,134.687103 2.914628,135.654648 
	C2.970569,136.108368 3.026510,136.562103 2.986736,137.511246 
	C3.056789,137.664154 3.126842,137.817078 3.202634,138.439072 
M193.000473,145.001236 
	C193.000473,145.001236 193.027023,144.982620 192.658310,144.371292 
	C190.434738,144.237350 188.211166,144.103424 185.296631,143.952332 
	C184.626755,145.037460 183.956879,146.122589 183.297348,148.097473 
	C183.807587,148.320206 184.317810,148.542953 185.408463,149.061646 
	C187.295349,151.199509 189.182236,153.337372 191.355270,155.799454 
	C192.374771,154.502121 193.736008,152.769943 195.353287,150.497604 
	C194.574417,148.656296 193.795563,146.814972 193.000473,145.001236 
M177.999832,147.980194 
	C177.999832,147.980194 178.077194,147.958298 178.043793,147.131882 
	C177.946579,145.720078 177.849365,144.308273 177.754547,142.931396 
	C175.419418,142.931396 173.483154,142.931396 171.127060,142.931396 
	C171.127060,150.269348 171.086517,157.350845 171.207855,164.429550 
	C171.217072,164.966812 172.375290,165.484375 173.741272,166.171448 
	C174.494370,166.118011 175.247482,166.064560 176.883041,166.106888 
	C177.215149,161.071701 177.547256,156.036514 178.019928,150.597412 
	C178.019928,150.597412 178.064880,150.172104 178.835587,149.924332 
	C179.941406,149.337570 181.047241,148.750809 182.153076,148.164062 
	C181.945526,147.693008 181.737961,147.221970 181.530411,146.750931 
	C180.368622,147.138519 179.206818,147.526108 177.999832,147.980194 
M159.011292,160.914566 
	C154.334061,160.979462 149.656815,161.044342 144.488464,161.033783 
	C144.488464,161.033783 144.068878,161.299942 143.471313,161.517746 
	C142.439011,163.016830 141.406723,164.515900 140.188370,166.285156 
	C145.221710,166.285156 149.552475,166.664307 153.771698,166.142181 
	C156.280716,165.831696 158.614212,164.103012 161.570847,162.787308 
	C162.041748,162.179199 162.512634,161.571075 163.588837,160.647797 
	C166.754242,155.311920 165.957214,152.125565 159.939240,149.971619 
	C155.583847,148.412720 150.802338,148.044296 146.211624,147.141663 
	C148.959473,142.092072 150.531860,141.420532 157.040665,145.043732 
	C161.925613,147.762985 164.872971,147.016861 167.228302,141.995865 
	C166.062210,141.111847 164.884445,140.218994 162.899643,138.714310 
	C184.579300,138.714310 205.198456,138.714310 226.019241,138.714310 
	C226.019241,137.274200 226.019241,136.137238 225.984146,134.451843 
	C225.653000,134.377441 225.321869,134.303040 224.061264,134.114105 
	C191.379288,134.155319 158.697296,134.196548 125.511818,134.149185 
	C125.399414,134.436859 125.287010,134.724533 125.030785,135.743423 
	C125.074738,136.484467 125.118698,137.225494 125.145157,138.489090 
	C125.444000,138.569687 125.742851,138.650299 126.968506,138.827698 
	C134.430649,138.827698 141.892792,138.827698 150.549240,138.827698 
	C141.904709,144.028534 139.882202,146.657074 138.817459,153.342010 
	C146.302689,154.289948 154.756500,152.283386 159.987595,160.420288 
	C159.987595,160.420288 159.933029,160.846649 159.011292,160.914566 
M200.117828,142.878510 
	C199.746307,147.444595 199.087753,152.012344 199.114120,156.576126 
	C199.129211,159.191177 200.257080,161.799774 201.215683,165.054123 
	C208.635071,165.628906 216.054459,166.203690 223.778809,166.802094 
	C223.778809,160.155258 223.965652,154.696350 223.717712,149.257248 
	C223.530624,145.152740 221.661438,142.439682 216.864502,142.686813 
	C211.586243,142.958740 206.290344,142.888046 200.117828,142.878510 
M118.060860,208.719574 
	C118.514030,211.402359 118.967209,214.085159 119.420380,216.767944 
	C119.635468,216.742905 119.850563,216.717850 120.065659,216.692810 
	C119.899628,213.726761 119.733597,210.760712 119.646423,206.888885 
	C119.646423,139.845230 119.646423,72.801582 119.646423,4.452754 
	C100.562363,43.314857 82.016014,81.081970 63.469666,118.849091 
	C64.049370,119.234489 64.629082,119.619888 65.208786,120.005287 
	C78.364952,106.470711 89.317581,90.949654 102.661774,76.257263 
	C107.915031,120.798500 113.051201,164.347000 118.060860,208.719574 
M60.102173,37.602852 
	C58.041386,37.141880 55.980598,36.680908 53.682819,36.166927 
	C52.031601,39.536655 50.490326,42.682007 48.772087,46.188503 
	C54.823990,47.531502 60.253723,48.736431 65.875114,49.983894 
	C67.482910,46.723278 69.002121,43.642319 70.755775,40.085896 
	C67.265503,39.280407 64.077339,38.544636 60.102173,37.602852 
M74.319366,41.586086 
	C72.883202,44.557999 71.447037,47.529911 69.777122,50.985535 
	C75.629898,52.326653 81.205727,53.604313 86.903847,54.909992 
	C88.509155,51.487774 89.943100,48.430882 91.615616,44.865376 
	C85.598152,43.531723 80.288307,42.354904 74.319366,41.586086 
M130.477692,65.060982 
	C134.605881,65.995445 138.734085,66.929901 142.932724,67.880310 
	C144.537827,64.465858 145.974670,61.409328 147.639099,57.868664 
	C141.554672,56.446487 136.154922,55.184349 130.530334,53.869652 
	C128.931396,57.209763 127.448959,60.306519 125.858185,63.629566 
	C127.249100,64.104652 128.467056,64.520668 130.477692,65.060982 
M149.993652,69.644661 
	C154.503693,70.633171 159.013733,71.621681 163.875977,72.687386 
	C165.394791,69.452148 166.835495,66.383247 168.525177,62.784050 
	C162.534546,61.379433 157.124359,60.110905 151.504379,58.793190 
	C150.090714,61.684307 148.673355,64.293945 147.603485,67.039001 
	C147.412323,67.529495 148.659805,68.580696 149.993652,69.644661 
M134.405746,142.961075 
	C132.678513,142.961075 130.951279,142.961075 129.271469,142.961075 
	C129.271469,150.980545 129.271469,158.494873 129.271469,166.239090 
	C131.357239,166.125488 133.085388,166.031372 134.983459,165.928009 
	C134.983459,158.231384 134.983459,150.979721 134.405746,142.961075 
M133.224792,124.424744 
	C131.653595,125.500954 129.631180,126.301384 128.724991,127.784050 
	C128.342529,128.409805 130.026901,131.096085 131.304901,131.681030 
	C132.284775,132.129532 135.274399,130.829453 135.318512,130.169876 
	C135.436722,128.401993 134.452682,126.560387 133.224792,124.424744 
z"/>
<path fill="#F47318" opacity="1.000000" stroke="none" 
	d="
M118.187370,207.895493 
	C113.051201,164.347000 107.915031,120.798500 102.661774,76.257263 
	C89.317581,90.949654 78.364952,106.470711 65.208786,120.005287 
	C64.629082,119.619888 64.049370,119.234489 63.469666,118.849091 
	C82.016014,81.081970 100.562363,43.314857 119.646423,4.452754 
	C119.646423,72.801582 119.646423,139.845230 119.375778,207.337219 
	C118.802322,207.848129 118.496399,207.884766 118.187370,207.895493 
z"/>
<path fill="#F47214" opacity="1.000000" stroke="none" 
	d="
M28.667036,147.135040 
	C24.942469,146.438889 21.234085,145.303711 17.488947,145.165665 
	C13.456518,145.017029 10.304387,147.058945 8.673456,151.356812 
	C13.079322,150.898987 17.135386,150.395721 21.205952,150.078583 
	C24.935589,149.788010 30.951836,153.862350 32.346832,157.440414 
	C33.811619,161.197479 31.876896,163.551819 28.866043,165.174011 
	C27.029753,166.163376 24.913551,166.633194 22.610397,167.446838 
	C23.979136,169.579254 25.382906,171.766266 26.812065,173.992813 
	C22.531479,175.400635 20.250385,173.566803 17.802372,170.315948 
	C15.453388,167.196594 11.849171,165.022476 8.444746,162.134506 
	C10.212684,160.866684 11.605673,159.867752 12.936003,158.913757 
	C14.992293,160.728027 16.704891,163.388824 18.869246,163.829163 
	C21.086605,164.280289 23.746233,162.557541 26.212280,161.786285 
	C24.731840,160.167862 23.412924,157.386017 21.740046,157.153793 
	C17.108709,156.510834 12.329775,156.931061 6.517999,156.931061 
	C6.673090,153.909332 5.882307,150.161926 7.271196,147.592911 
	C8.686605,144.974854 11.996514,142.878494 14.936460,141.728348 
	C17.880983,140.576416 21.393435,140.876175 24.656952,140.539612 
	C24.659857,139.939880 24.662762,139.340149 24.665667,138.740417 
	C18.090729,138.740417 11.515792,138.740417 4.470913,138.484375 
	C4.000970,138.228317 3.942788,137.884811 3.855382,137.690933 
	C3.595794,137.256424 3.367285,137.096008 3.082451,137.015823 
	C3.026510,136.562103 2.970569,136.108368 3.191370,135.232529 
	C3.716917,134.645111 3.885456,134.419785 3.973728,134.134415 
	C31.764317,134.077606 59.554909,134.020569 87.345497,133.964432 
	C89.107414,133.960861 90.869339,133.963974 92.952522,133.963974 
	C91.813187,129.625488 89.651634,127.186981 85.671875,126.081398 
	C84.664818,125.801636 84.154778,123.732788 83.895172,122.166298 
	C84.645973,121.704445 84.848724,121.495255 84.982254,121.218964 
	C91.518623,120.820007 94.374924,125.051964 96.064331,130.371536 
	C96.943542,133.139984 98.311081,134.516541 101.655457,134.263153 
	C102.060730,134.507797 102.260017,134.837234 102.260017,134.837234 
	C102.220718,135.948105 102.417801,137.954056 102.106827,138.036148 
	C97.089478,139.361130 99.075966,143.370621 98.956657,146.339233 
	C98.719559,152.238785 98.869720,158.153870 98.588058,164.536255 
	C98.316261,165.009949 97.914742,165.048019 97.710747,165.145935 
	C97.258636,165.436279 97.090889,165.683334 97.003502,165.984970 
	C95.931061,166.050659 94.858627,166.116333 93.294815,165.872986 
	C92.620995,165.290619 92.372253,165.107071 92.057220,165.013336 
	C92.057220,156.423538 92.057220,147.833755 92.057220,139.017883 
	C89.103294,139.017883 86.834404,139.017883 85.675621,139.017883 
	C85.675621,144.007080 86.045120,148.948990 85.458725,153.774765 
	C85.273979,155.295166 82.526726,156.504196 80.614456,158.145737 
	C81.431854,159.213623 82.621773,160.768204 83.905624,162.931213 
	C84.019386,164.127365 84.039215,164.715057 84.059052,165.302765 
	C82.308464,164.920776 79.817009,165.132919 78.945366,164.046036 
	C76.265289,160.704117 74.079254,156.935013 71.988297,153.172394 
	C71.431366,152.170227 71.904114,150.595840 71.904114,149.284180 
	C72.382973,149.289230 72.861832,149.294281 73.340691,149.299332 
	C74.927872,151.107742 76.515045,152.916153 78.572304,155.260147 
	C82.185806,149.601944 78.585220,145.746857 76.609703,141.529144 
	C77.555008,141.012436 78.410583,140.544754 79.912247,140.020691 
	C80.921692,139.585358 81.285049,139.206421 81.648407,138.827484 
	C81.180817,138.701248 80.713211,138.575012 80.245613,138.448776 
	C76.054726,138.569458 71.863831,138.690140 66.830124,139.027710 
	C65.658630,140.766678 65.066391,142.285248 65.045982,143.811447 
	C64.947189,151.202301 65.001961,158.595230 65.002304,165.987396 
	C63.934319,166.055435 62.866337,166.123459 61.283279,165.888718 
	C60.490864,165.389053 60.213524,165.192154 59.936180,164.995270 
	C59.936180,161.728790 59.936180,158.462311 59.936180,154.952072 
	C54.303719,155.549179 49.299278,156.079712 44.147720,156.625839 
	C45.559692,159.883316 46.641579,162.379257 47.024681,164.917450 
	C45.451347,165.009399 44.576797,165.059097 43.702248,165.108780 
	C41.034576,161.139893 38.250946,157.240891 35.784939,153.150436 
	C35.205620,152.189484 35.699223,150.581711 36.846348,149.049973 
	C38.410160,150.915192 39.973972,152.780411 42.232151,155.473816 
	C45.875870,149.863541 42.562641,145.909836 40.257584,141.563522 
	C41.381622,140.895157 42.481270,140.241302 44.524933,139.026108 
	C39.654217,139.026108 35.949078,139.026108 31.641890,139.026108 
	C31.641890,141.533310 31.641890,143.806107 31.178070,146.531372 
	C30.031843,147.034225 29.349440,147.084625 28.667036,147.135040 
M50.123608,146.727661 
	C50.123608,148.506042 50.123608,150.284424 50.123608,152.091400 
	C58.708401,151.414169 60.792862,148.380966 59.243729,139.041595 
	C55.582207,139.041595 51.870930,139.041595 48.063271,139.041595 
	C48.772816,141.466095 49.413387,143.654907 50.123608,146.727661 
z"/>
<path fill="#0C88D3" opacity="1.000000" stroke="none" 
	d="
M125.162659,137.966537 
	C125.118698,137.225494 125.074738,136.484467 125.281204,135.294174 
	C125.764328,134.699478 125.925552,134.497086 126.015312,134.237762 
	C158.697296,134.196548 191.379288,134.155319 224.651627,134.354248 
	C225.458694,134.810791 225.717773,134.946106 226.019241,135.000290 
	C226.019241,136.137238 226.019241,137.274200 226.019241,138.714310 
	C205.198456,138.714310 184.579300,138.714310 162.899643,138.714310 
	C164.884445,140.218994 166.062210,141.111847 167.228302,141.995865 
	C164.872971,147.016861 161.925613,147.762985 157.040665,145.043732 
	C150.531860,141.420532 148.959473,142.092072 146.211243,147.143311 
	C150.802338,148.044296 155.583847,148.412720 159.939240,149.971619 
	C165.957214,152.125565 166.754242,155.311920 163.087433,160.553574 
	C161.756165,160.307709 160.926285,160.156082 160.096405,160.004456 
	C154.756500,152.283386 146.302689,154.289948 138.817459,153.342010 
	C139.882202,146.657074 141.904709,144.028534 150.549240,138.827698 
	C141.892792,138.827698 134.430649,138.827698 126.406967,138.603821 
	C125.653191,138.183762 125.425598,138.045959 125.162659,137.966537 
z"/>
<path fill="#148BD4" opacity="1.000000" stroke="none" 
	d="
M201.002121,142.966614 
	C206.290344,142.888046 211.586243,142.958740 216.864502,142.686813 
	C221.661438,142.439682 223.530624,145.152740 223.717712,149.257248 
	C223.965652,154.696350 223.778809,160.155258 223.778809,166.802094 
	C216.054459,166.203690 208.635071,165.628906 201.084381,164.235260 
	C200.969437,156.599808 200.985779,149.783218 201.002121,142.966614 
M207.695938,148.924606 
	C206.823303,149.603683 205.261734,150.223465 205.197311,150.972107 
	C204.918686,154.208969 205.078018,157.483551 205.078018,160.680206 
	C217.218079,161.449799 218.785034,161.785187 216.483170,148.920959 
	C213.919586,148.920959 211.284866,148.920959 207.695938,148.924606 
z"/>
<path fill="#128AD4" opacity="1.000000" stroke="none" 
	d="
M60.495674,37.705860 
	C64.077339,38.544636 67.265503,39.280407 70.755775,40.085896 
	C69.002121,43.642319 67.482910,46.723278 65.875114,49.983894 
	C60.253723,48.736431 54.823990,47.531502 48.772087,46.188503 
	C50.490326,42.682007 52.031601,39.536655 53.682819,36.166927 
	C55.980598,36.680908 58.041386,37.141880 60.495674,37.705860 
z"/>
<path fill="#128AD4" opacity="1.000000" stroke="none" 
	d="
M74.648918,41.382088 
	C80.288307,42.354904 85.598152,43.531723 91.615616,44.865376 
	C89.943100,48.430882 88.509155,51.487774 86.903847,54.909992 
	C81.205727,53.604313 75.629898,52.326653 69.777122,50.985535 
	C71.447037,47.529911 72.883202,44.557999 74.648918,41.382088 
z"/>
<path fill="#1189D3" opacity="1.000000" stroke="none" 
	d="
M130.081360,64.998833 
	C128.467056,64.520668 127.249100,64.104652 125.858185,63.629566 
	C127.448959,60.306519 128.931396,57.209763 130.530334,53.869652 
	C136.154922,55.184349 141.554672,56.446487 147.639099,57.868664 
	C145.974670,61.409328 144.537827,64.465858 142.932724,67.880310 
	C138.734085,66.929901 134.605881,65.995445 130.081360,64.998833 
z"/>
<path fill="#1089D3" opacity="1.000000" stroke="none" 
	d="
M149.618332,69.508827 
	C148.659805,68.580696 147.412323,67.529495 147.603485,67.039001 
	C148.673355,64.293945 150.090714,61.684307 151.504379,58.793190 
	C157.124359,60.110905 162.534546,61.379433 168.525177,62.784050 
	C166.835495,66.383247 165.394791,69.452148 163.875977,72.687386 
	C159.013733,71.621681 154.503693,70.633171 149.618332,69.508827 
z"/>
<path fill="#0986D2" opacity="1.000000" stroke="none" 
	d="
M134.694611,143.344574 
	C134.983459,150.979721 134.983459,158.231384 134.983459,165.928009 
	C133.085388,166.031372 131.357239,166.125488 129.271469,166.239090 
	C129.271469,158.494873 129.271469,150.980545 129.271469,142.961075 
	C130.951279,142.961075 132.678513,142.961075 134.694611,143.344574 
z"/>
<path fill="#138AD4" opacity="1.000000" stroke="none" 
	d="
M161.026611,163.011932 
	C158.614212,164.103012 156.280716,165.831696 153.771698,166.142181 
	C149.552475,166.664307 145.221710,166.285156 140.188370,166.285156 
	C141.406723,164.515900 142.439011,163.016830 143.880737,161.526245 
	C144.639923,161.640747 144.869720,161.498917 144.979584,161.109238 
	C149.656815,161.044342 154.334061,160.979462 159.506104,161.200226 
	C160.342834,161.994568 160.684723,162.503250 161.026611,163.011932 
z"/>
<path fill="#1089D3" opacity="1.000000" stroke="none" 
	d="
M183.286987,147.207703 
	C183.956879,146.122589 184.626755,145.037460 185.909485,144.253220 
	C188.690582,144.696945 190.858795,144.839783 193.027023,144.982620 
	C193.027023,144.982620 193.000473,145.001236 193.008636,145.364212 
	C193.710281,147.497375 194.403763,149.267578 195.097244,151.037766 
	C193.736008,152.769943 192.374771,154.502121 191.355270,155.799454 
	C189.182236,153.337372 187.295349,151.199509 185.031677,148.511017 
	C184.198914,147.709488 183.742950,147.458603 183.286987,147.207703 
z"/>
<path fill="#1089D3" opacity="1.000000" stroke="none" 
	d="
M176.000580,166.011108 
	C175.247482,166.064560 174.494370,166.118011 173.370758,165.621887 
	C173.250031,158.112915 172.473923,151.064087 173.336517,144.785675 
	C175.307755,146.104904 176.692474,147.031601 178.077179,147.958313 
	C178.077194,147.958298 177.999832,147.980194 178.012787,148.323486 
	C178.038788,149.168549 178.051834,149.670319 178.064880,150.172104 
	C178.064880,150.172104 178.019928,150.597412 177.563873,150.901108 
	C176.738724,156.140244 176.369659,161.075668 176.000580,166.011108 
z"/>
<path fill="#0F8AD4" opacity="1.000000" stroke="none" 
	d="
M178.060486,147.545105 
	C176.692474,147.031601 175.307755,146.104904 173.336517,144.785675 
	C172.473923,151.064087 173.250031,158.112915 172.999817,165.541718 
	C172.375290,165.484375 171.217072,164.966812 171.207855,164.429550 
	C171.086517,157.350845 171.127060,150.269348 171.127060,142.931396 
	C173.483154,142.931396 175.419418,142.931396 177.754547,142.931396 
	C177.849365,144.308273 177.946579,145.720078 178.060486,147.545105 
z"/>
<path fill="#158BD4" opacity="1.000000" stroke="none" 
	d="
M133.565628,124.586411 
	C134.452682,126.560387 135.436722,128.401993 135.318512,130.169876 
	C135.274399,130.829453 132.284775,132.129532 131.304901,131.681030 
	C130.026901,131.096085 128.342529,128.409805 128.724991,127.784050 
	C129.631180,126.301384 131.653595,125.500954 133.565628,124.586411 
z"/>
<path fill="#F46B00" opacity="1.000000" stroke="none" 
	d="
M65.260735,166.033508 
	C65.001961,158.595230 64.947189,151.202301 65.045982,143.811447 
	C65.066391,142.285248 65.658630,140.766678 66.349197,139.096436 
	C66.670036,147.030441 66.628975,155.112579 66.347069,163.838043 
	C66.059219,164.921814 66.012222,165.362259 65.965225,165.802704 
	C65.816536,165.895020 65.667854,165.987320 65.260735,166.033508 
z"/>
<path fill="#0585D2" opacity="1.000000" stroke="none" 
	d="
M200.559967,142.922562 
	C200.985779,149.783218 200.969437,156.599808 200.918533,163.913849 
	C200.257080,161.799774 199.129211,159.191177 199.114120,156.576126 
	C199.087753,152.012344 199.746307,147.444595 200.559967,142.922562 
z"/>
<path fill="#0F8AD4" opacity="1.000000" stroke="none" 
	d="
M176.441803,166.058990 
	C176.369659,161.075668 176.738724,156.140244 177.493591,151.103058 
	C177.547256,156.036514 177.215149,161.071701 176.441803,166.058990 
z"/>
<path fill="#F7A272" opacity="1.000000" stroke="none" 
	d="
M118.124115,208.307526 
	C118.496399,207.884766 118.802322,207.848129 119.336349,207.790115 
	C119.733597,210.760712 119.899628,213.726761 120.065659,216.692810 
	C119.850563,216.717850 119.635468,216.742905 119.420380,216.767944 
	C118.967209,214.085159 118.514030,211.402359 118.124115,208.307526 
z"/>
<path fill="#F4771F" opacity="1.000000" stroke="none" 
	d="
M43.992283,165.248505 
	C44.576797,165.059097 45.451347,165.009399 46.609146,165.017624 
	C47.476063,165.261719 48.059727,165.447891 48.643394,165.634048 
	C48.602425,165.849915 48.561455,166.065765 48.520485,166.281616 
	C47.107761,165.983826 45.695038,165.686035 43.992283,165.248505 
z"/>
<path fill="#0F8AD4" opacity="1.000000" stroke="none" 
	d="
M192.842667,144.676956 
	C190.858795,144.839783 188.690582,144.696945 186.254974,144.261795 
	C188.211166,144.103424 190.434738,144.237350 192.842667,144.676956 
z"/>
<path fill="#0F8AD4" opacity="1.000000" stroke="none" 
	d="
M195.225266,150.767685 
	C194.403763,149.267578 193.710281,147.497375 193.016754,145.350433 
	C193.795563,146.814972 194.574417,148.656296 195.225266,150.767685 
z"/>
<path fill="#F4771F" opacity="1.000000" stroke="none" 
	d="
M84.218933,165.482086 
	C84.039215,164.715057 84.019386,164.127365 84.010033,163.243805 
	C84.589439,163.988312 85.158371,165.028656 85.727295,166.069000 
	C85.277802,165.933136 84.828308,165.797287 84.218933,165.482086 
z"/>
<path fill="#0483D1" opacity="1.000000" stroke="none" 
	d="
M161.298737,162.899612 
	C160.684723,162.503250 160.342834,161.994568 159.966980,161.166275 
	C159.933029,160.846649 159.987595,160.420288 160.041992,160.212372 
	C160.926285,160.156082 161.756165,160.307709 162.784790,160.711151 
	C162.512634,161.571075 162.041748,162.179199 161.298737,162.899612 
z"/>
<path fill="#0F8AD4" opacity="1.000000" stroke="none" 
	d="
M178.450226,150.048218 
	C178.051834,149.670319 178.038788,149.168549 178.035370,148.290222 
	C179.206818,147.526108 180.368622,147.138519 181.530411,146.750931 
	C181.737961,147.221970 181.945526,147.693008 182.153076,148.164062 
	C181.047241,148.750809 179.941406,149.337570 178.450226,150.048218 
z"/>
<path fill="#F4771F" opacity="1.000000" stroke="none" 
	d="
M28.849182,147.389999 
	C29.349440,147.084625 30.031843,147.034225 31.055141,146.973053 
	C31.320143,147.494293 31.244253,148.026337 31.168364,148.558365 
	C30.456018,148.253906 29.743673,147.949432 28.849182,147.389999 
z"/>
<path fill="#F4771F" opacity="1.000000" stroke="none" 
	d="
M80.254173,138.847687 
	C80.713211,138.575012 81.180817,138.701248 81.648407,138.827484 
	C81.285049,139.206421 80.921692,139.585358 80.284393,139.983978 
	C80.094551,139.751312 80.178642,139.498962 80.254173,138.847687 
z"/>
<path fill="#F4771F" opacity="1.000000" stroke="none" 
	d="
M66.224197,165.720367 
	C66.012222,165.362259 66.059219,164.921814 66.236893,164.301010 
	C66.406097,164.626450 66.444633,165.132233 66.224197,165.720367 
z"/>
<path fill="#F36801" opacity="1.000000" stroke="none" 
	d="
M3.707537,134.115051 
	C3.885456,134.419785 3.716917,134.645111 3.271749,134.896606 
	C3.197374,134.687103 3.319360,134.391403 3.707537,134.115051 
z"/>
<path fill="#4A9DDA" opacity="1.000000" stroke="none" 
	d="
M125.153900,138.227814 
	C125.425598,138.045959 125.653191,138.183762 125.943565,138.555420 
	C125.742851,138.650299 125.444000,138.569687 125.153900,138.227814 
z"/>
<path fill="#F4771F" opacity="1.000000" stroke="none" 
	d="
M97.914742,165.048019 
	C97.914742,165.048019 98.316261,165.009949 98.517334,164.999039 
	C98.650894,165.302170 98.583374,165.616196 98.237328,165.704529 
	C97.958794,165.478806 97.914742,165.048019 97.914742,165.048019 
z"/>
<path fill="#F36700" opacity="1.000000" stroke="none" 
	d="
M97.710747,165.145935 
	C97.914742,165.048019 97.958794,165.478806 97.971680,165.694931 
	C97.824852,165.973877 97.665146,166.036682 97.254471,166.042236 
	C97.090889,165.683334 97.258636,165.436279 97.710747,165.145935 
z"/>
<path fill="#F36700" opacity="1.000000" stroke="none" 
	d="
M92.043396,165.301743 
	C92.372253,165.107071 92.620995,165.290619 92.900627,165.778748 
	C92.675064,165.859055 92.352325,165.724594 92.043396,165.301743 
z"/>
<path fill="#F4771F" opacity="1.000000" stroke="none" 
	d="
M59.931396,165.309265 
	C60.213524,165.192154 60.490864,165.389053 60.886406,165.815842 
	C60.645271,165.904907 60.285942,165.764084 59.931396,165.309265 
z"/>
<path fill="#F4771F" opacity="1.000000" stroke="none" 
	d="
M84.723915,121.183601 
	C84.848724,121.495255 84.645973,121.704445 84.163467,121.915680 
	C84.123817,121.705956 84.294701,121.427094 84.723915,121.183601 
z"/>
<path fill="#0483D1" opacity="1.000000" stroke="none" 
	d="
M144.734024,161.071503 
	C144.869720,161.498917 144.639923,161.640747 144.179535,161.417328 
	C144.068878,161.299942 144.488464,161.033783 144.734024,161.071503 
z"/>
<path fill="#F4771F" opacity="1.000000" stroke="none" 
	d="
M102.367081,134.727524 
	C102.260017,134.837234 102.060730,134.507797 102.038506,134.413452 
	C102.271820,134.261353 102.424446,134.360916 102.367081,134.727524 
z"/>
<path fill="#3595D8" opacity="1.000000" stroke="none" 
	d="
M125.763565,134.193481 
	C125.925552,134.497086 125.764328,134.699478 125.353119,134.928558 
	C125.287010,134.724533 125.399414,134.436859 125.763565,134.193481 
z"/>
<path fill="#0F8AD4" opacity="1.000000" stroke="none" 
	d="
M183.292175,147.652588 
	C183.742950,147.458603 184.198914,147.709488 184.741455,148.363037 
	C184.317810,148.542953 183.807587,148.320206 183.292175,147.652588 
z"/>
<path fill="#3595D8" opacity="1.000000" stroke="none" 
	d="
M226.001694,134.726074 
	C225.717773,134.946106 225.458694,134.810791 225.116364,134.411499 
	C225.321869,134.303040 225.653000,134.377441 226.001694,134.726074 
z"/>
<path fill="#F36801" opacity="1.000000" stroke="none" 
	d="
M3.034594,137.263535 
	C3.367285,137.096008 3.595794,137.256424 3.669782,137.718506 
	C3.571587,137.939941 3.196895,137.969986 3.196895,137.969986 
	C3.126842,137.817078 3.056789,137.664154 3.034594,137.263535 
z"/>
<path fill="#F4771F" opacity="1.000000" stroke="none" 
	d="
M3.199764,138.204529 
	C3.196895,137.969986 3.571587,137.939941 3.757187,137.912384 
	C3.942788,137.884811 4.000970,138.228317 4.011113,138.402191 
	C4.021256,138.576065 3.575960,138.722443 3.575960,138.722443 
	C3.575960,138.722443 3.202634,138.439072 3.199764,138.204529 
z"/>
<path fill="#FEF7F3" opacity="1.000000" stroke="none" 
	d="
M50.088783,146.285706 
	C49.413387,143.654907 48.772816,141.466095 48.063271,139.041595 
	C51.870930,139.041595 55.582207,139.041595 59.243729,139.041595 
	C60.792862,148.380966 58.708401,151.414169 50.123608,152.091400 
	C50.123608,150.284424 50.123608,148.506042 50.088783,146.285706 
z"/>
<path fill="#FCFDFE" opacity="1.000000" stroke="none" 
	d="
M208.173035,148.922791 
	C211.284866,148.920959 213.919586,148.920959 216.483170,148.920959 
	C218.785034,161.785187 217.218079,161.449799 205.078018,160.680206 
	C205.078018,157.483551 204.918686,154.208969 205.197311,150.972107 
	C205.261734,150.223465 206.823303,149.603683 208.173035,148.922791 
z"/>
</svg>